<svg width="36" height="36" viewBox="0 0 36 36" fill="none" xmlns="http://www.w3.org/2000/svg">
<path d="M18 3L18.486 3.0015L18.963 3.0075L19.887 3.033L20.3355 3.0525L21.204 3.1035L22.0335 3.1725C29.211 3.8685 32.1315 6.789 32.8275 13.9665L32.8965 14.796L32.9475 15.6645C32.955 15.8115 32.9625 15.9615 32.967 16.113L32.9925 17.037L33 18L32.9925 18.963L32.967 19.887L32.9475 20.3355L32.8965 21.204L32.8275 22.0335C32.1315 29.211 29.211 32.1315 22.0335 32.8275L21.204 32.8965L20.3355 32.9475C20.1885 32.955 20.0385 32.9625 19.887 32.967L18.963 32.9925L18 33L17.037 32.9925L16.113 32.967L15.6645 32.9475L14.796 32.8965L13.9665 32.8275C6.789 32.1315 3.8685 29.211 3.1725 22.0335L3.1035 21.204L3.0525 20.3355C3.0452 20.186 3.0387 20.0365 3.033 19.887L3.0075 18.963C3.003 18.648 3 18.327 3 18L3.0015 17.514L3.0075 17.037L3.033 16.113L3.0525 15.6645L3.1035 14.796L3.1725 13.9665C3.8685 6.789 6.789 3.8685 13.9665 3.1725L14.796 3.1035L15.6645 3.0525C15.8115 3.045 15.9615 3.0375 16.113 3.033L17.037 3.0075C17.352 3.003 17.673 3 18 3ZM18 12C17.6022 12 17.2206 12.158 16.9393 12.4393C16.658 12.7206 16.5 13.1022 16.5 13.5V16.5H13.5L13.3245 16.5105C12.9449 16.5557 12.5968 16.7441 12.3514 17.0373C12.106 17.3304 11.9818 17.7062 12.0042 18.0879C12.0266 18.4696 12.1939 18.8283 12.4719 19.0907C12.75 19.3532 13.1177 19.4996 13.5 19.5H16.5V22.5L16.5105 22.6755C16.5557 23.0551 16.7441 23.4032 17.0373 23.6486C17.3304 23.894 17.7062 24.0182 18.0879 23.9958C18.4696 23.9734 18.8283 23.8061 19.0907 23.5281C19.3532 23.25 19.4996 22.8823 19.5 22.5V19.5H22.5L22.6755 19.4895C23.0551 19.4443 23.4032 19.2559 23.6486 18.9627C23.894 18.6696 24.0182 18.2938 23.9958 17.9121C23.9734 17.5304 23.8061 17.1717 23.5281 16.9093C23.25 16.6468 22.8823 16.5004 22.5 16.5H19.5V13.5L19.4895 13.3245C19.4465 12.9596 19.2711 12.6232 18.9966 12.3791C18.722 12.1349 18.3674 12 18 12Z" fill="white"/>
</svg>
