<svg width="200" height="200" viewBox="0 0 200 200" fill="none" xmlns="http://www.w3.org/2000/svg">
<g clip-path="url(#clip0_199_2454)">
<path d="M182.867 236.538C175.855 184.462 168.845 132.382 161.836 80.3077C158.308 49.8467 139.166 33.1007 103.631 31.46C66.6677 29.7549 25.5544 64.3272 17.2419 96.753L49.7576 96.8741C47.2146 148.079 46.2322 187.61 43.6892 238.815L182.867 236.538Z" fill="white"/>
<path d="M169.144 228.41C163.242 181.023 157.34 133.637 151.441 86.2519C148.473 58.5332 132.389 41.8047 102.441 41.8047C70.1483 41.8047 50.8007 58 31.0331 88.5215L61.6932 88.6328C59.5526 135.225 57.41 181.818 55.2694 228.41H169.144ZM109.871 45.8066C119.812 45.8066 127.871 53.8809 127.871 63.8418C127.871 73.8027 119.812 81.877 109.871 81.877C99.9296 81.877 91.871 73.8027 91.871 63.8418C91.871 53.8809 99.9296 45.8066 109.871 45.8066Z" fill="url(#paint0_linear_199_2454)" stroke="#244228" stroke-width="0.046875" stroke-miterlimit="10"/>
<path d="M110.177 75.1987C116.379 75.1987 121.406 70.1716 121.406 63.9702C121.406 57.7689 116.379 52.7417 110.177 52.7417C103.976 52.7417 98.949 57.7689 98.949 63.9702C98.949 70.1716 103.976 75.1987 110.177 75.1987Z" fill="url(#paint1_linear_199_2454)" stroke="#244228" stroke-width="0.046875" stroke-miterlimit="10"/>
</g>
<defs>
<linearGradient id="paint0_linear_199_2454" x1="84.2823" y1="79.5672" x2="280.881" y2="865.962" gradientUnits="userSpaceOnUse">
<stop stop-color="#313834"/>
<stop offset="0.5736" stop-color="#52FF52"/>
<stop offset="1" stop-color="#08E305"/>
</linearGradient>
<linearGradient id="paint1_linear_199_2454" x1="108.4" y1="56.8634" x2="130.515" y2="145.322" gradientUnits="userSpaceOnUse">
<stop stop-color="#313834"/>
<stop offset="0.5736" stop-color="#52FF52"/>
<stop offset="1" stop-color="#08E305"/>
</linearGradient>
<clipPath id="clip0_199_2454">
<rect width="200" height="200" fill="white"/>
</clipPath>
</defs>
</svg>
