<svg width="32" height="32" viewBox="0 0 32 32" fill="none" xmlns="http://www.w3.org/2000/svg">
<path fill-rule="evenodd" clip-rule="evenodd" d="M16.4 3.07422C13.4684 3.07422 11.0711 3.81523 8.96136 5.27777C6.87717 6.72259 5.13027 8.83281 3.42006 11.4734C3.22123 11.7804 3.20587 12.1715 3.38002 12.4931C3.55417 12.8148 3.89004 13.0157 4.2558 13.017L8.42537 13.032L7.73748 28H9.73959L10.4712 12.0817L10.5191 11.0395L9.47581 11.0358L6.14713 11.0238C7.43117 9.24706 8.70559 7.88864 10.1008 6.92145C11.4066 6.01623 12.8491 5.43247 14.5625 5.19516C13.9637 5.90379 13.6028 6.82024 13.6028 7.82047C13.6028 10.0643 15.4187 11.8867 17.6632 11.8867C19.9074 11.8867 21.7232 10.0643 21.7232 7.82047C21.7232 7.47202 21.6794 7.13372 21.597 6.81084L21.6003 6.81396C22.762 7.90591 23.5014 9.5452 23.7363 11.7373L23.7373 11.7458L23.7383 11.7543C24.4124 17.1694 25.0868 22.5847 25.7613 28H27.7768C27.0924 22.5051 26.408 17.0102 25.724 11.5155C25.4528 8.99894 24.5728 6.86313 22.9701 5.35667C21.3589 3.84225 19.135 3.07422 16.4 3.07422ZM15.6028 7.82047C15.6028 6.67752 16.5272 5.75422 17.6632 5.75422C18.7989 5.75422 19.7232 6.67739 19.7232 7.82047C19.7232 8.96355 18.7989 9.88672 17.6632 9.88672C16.527 9.88672 15.6028 8.96348 15.6028 7.82047Z" fill="white"/>
<path d="M17.6406 8.78125C18.2015 8.78125 18.6562 8.32654 18.6562 7.76562C18.6562 7.20471 18.2015 6.75 17.6406 6.75C17.0797 6.75 16.625 7.20471 16.625 7.76562C16.625 8.32654 17.0797 8.78125 17.6406 8.78125Z" fill="white"/>
</svg>
