<svg width="32" height="32" viewBox="0 0 32 32" fill="none" xmlns="http://www.w3.org/2000/svg">
<g clip-path="url(#clip0_107_3762)">
<path d="M27.7407 35.8005L27.7407 36.8005L28.8729 36.8005L28.733 35.6769L27.7407 35.8005ZM24.7306 11.6308L23.7363 11.7373L23.7373 11.7458L23.7383 11.7543L24.7306 11.6308ZM4.2594 12.017L3.42006 11.4734C3.22122 11.7804 3.20587 12.1715 3.38002 12.4931C3.55417 12.8148 3.89004 13.0157 4.2558 13.017L4.2594 12.017ZM9.47221 12.0358L10.4712 12.0817L10.5191 11.0395L9.47581 11.0358L9.47221 12.0358ZM8.38002 35.8008L7.38108 35.7549L7.33301 36.8008L8.38004 36.8008L8.38002 35.8008ZM28.733 35.6769C27.7295 27.6203 26.7258 19.5635 25.723 11.5073L23.7383 11.7543C24.7411 19.8106 25.7449 27.8675 26.7483 35.9241L28.733 35.6769ZM25.725 11.5242C25.4549 9.00386 24.5746 6.86487 22.9701 5.35667C21.3589 3.84225 19.135 3.07422 16.4 3.07422V5.07422C18.7563 5.07422 20.4452 5.72821 21.6003 6.81396C22.762 7.90591 23.5014 9.5452 23.7363 11.7373L25.725 11.5242ZM16.4 3.07422C13.4684 3.07422 11.0711 3.81523 8.96136 5.27777C6.87716 6.72259 5.13027 8.83281 3.42006 11.4734L5.09874 12.5606C6.74947 10.0119 8.32757 8.15069 10.1008 6.92145C11.8485 5.70992 13.841 5.07422 16.4 5.07422V3.07422ZM4.2558 13.017L9.46861 13.0358L9.47581 11.0358L4.263 11.017L4.2558 13.017ZM8.47327 11.9899C8.1092 19.9114 7.74514 27.833 7.38108 35.7549L9.37897 35.8467C9.74303 27.9248 10.1071 20.0033 10.4712 12.0817L8.47327 11.9899ZM8.38004 36.8008L27.7407 36.8005L27.7406 34.8005L8.38001 34.8008L8.38004 36.8008ZM17.6631 5.75422C18.7989 5.75422 19.7232 6.67739 19.7232 7.82047H21.7232C21.7232 5.57667 19.9074 3.75422 17.6631 3.75422V5.75422ZM19.7232 7.82047C19.7232 8.96355 18.7989 9.88672 17.6631 9.88672V11.8867C19.9074 11.8867 21.7232 10.0643 21.7232 7.82047H19.7232ZM17.6631 9.88672C16.527 9.88672 15.6028 8.96348 15.6028 7.82047H13.6028C13.6028 10.0643 15.4187 11.8867 17.6631 11.8867V9.88672ZM15.6028 7.82047C15.6028 6.67752 16.5272 5.75422 17.6631 5.75422V3.75422C15.4191 3.75422 13.6028 5.57654 13.6028 7.82047H15.6028Z" fill="white"/>
<path d="M17.6406 8.78125C18.2015 8.78125 18.6562 8.32654 18.6562 7.76562C18.6562 7.20471 18.2015 6.75 17.6406 6.75C17.0797 6.75 16.625 7.20471 16.625 7.76562C16.625 8.32654 17.0797 8.78125 17.6406 8.78125Z" fill="white"/>
</g>
<defs>
<clipPath id="clip0_107_3762">
<rect width="32" height="32" fill="white"/>
</clipPath>
</defs>
</svg>
