<svg width="48" height="48" viewBox="0 0 48 48" fill="none" xmlns="http://www.w3.org/2000/svg">
<g clip-path="url(#clip0_107_3771)">
<path d="M43.8881 56.7689C42.2052 44.2707 40.5229 31.7714 38.8406 19.2736C37.994 11.963 33.3998 7.94394 24.8713 7.55019C16.0002 7.14097 6.13306 15.4383 4.13806 23.2205L11.9418 23.2496C11.3315 35.5388 11.0957 45.0263 10.4854 57.3155L43.8881 56.7689Z" fill="white"/>
<path d="M40.5947 54.8185C39.1782 43.4457 37.7616 32.0729 36.346 20.7005C35.6335 14.048 31.7733 10.0332 24.586 10.0332C16.8357 10.0332 12.1922 13.9201 7.448 21.2452L14.8064 21.272C14.2927 32.454 13.7785 43.6365 13.2647 54.8185H40.5947ZM26.3691 10.9937C28.755 10.9937 30.6891 12.9315 30.6891 15.3221C30.6891 17.7127 28.755 19.6505 26.3691 19.6505C23.9832 19.6505 22.0491 17.7127 22.0491 15.3221C22.0491 12.9315 23.9832 10.9937 26.3691 10.9937Z" fill="url(#paint0_linear_107_3771)" stroke="#244228" stroke-width="0.046875" stroke-miterlimit="10"/>
<path d="M26.4426 18.0479C27.931 18.0479 29.1375 16.8414 29.1375 15.353C29.1375 13.8647 27.931 12.6582 26.4426 12.6582C24.9543 12.6582 23.7478 13.8647 23.7478 15.353C23.7478 16.8414 24.9543 18.0479 26.4426 18.0479Z" fill="url(#paint1_linear_107_3771)" stroke="#244228" stroke-width="0.046875" stroke-miterlimit="10"/>
</g>
<defs>
<linearGradient id="paint0_linear_107_3771" x1="20.2278" y1="19.0962" x2="67.4115" y2="207.831" gradientUnits="userSpaceOnUse">
<stop stop-color="#313834"/>
<stop offset="0.5736" stop-color="#52FF52"/>
<stop offset="1" stop-color="#08E305"/>
</linearGradient>
<linearGradient id="paint1_linear_107_3771" x1="26.0161" y1="13.6474" x2="31.3236" y2="34.8774" gradientUnits="userSpaceOnUse">
<stop stop-color="#313834"/>
<stop offset="0.5736" stop-color="#52FF52"/>
<stop offset="1" stop-color="#08E305"/>
</linearGradient>
<clipPath id="clip0_107_3771">
<rect width="48" height="48" fill="white"/>
</clipPath>
</defs>
</svg>
